<?xml version="1.0" encoding="UTF-8" standalone="no"?>
<!-- Created with Inkscape (http://www.inkscape.org/) -->

<svg
   xmlns:dc="http://purl.org/dc/elements/1.1/"
   xmlns:cc="http://creativecommons.org/ns#"
   xmlns:rdf="http://www.w3.org/1999/02/22-rdf-syntax-ns#"
   xmlns:svg="http://www.w3.org/2000/svg"
   xmlns="http://www.w3.org/2000/svg"
   xmlns:sodipodi="http://sodipodi.sourceforge.net/DTD/sodipodi-0.dtd"
   xmlns:inkscape="http://www.inkscape.org/namespaces/inkscape"
   width="32px"
   height="32px"
   id="svg3002"
   version="1.1"
   inkscape:version="0.91 r13725"
   sodipodi:docname="coche.svg">
  <defs
     id="defs3004" />
  <sodipodi:namedview
     id="base"
     pagecolor="#ffffff"
     bordercolor="#666666"
     borderopacity="1.0"
     inkscape:pageopacity="0.0"
     inkscape:pageshadow="2"
     inkscape:zoom="16"
     inkscape:cx="14.500461"
     inkscape:cy="16.180444"
     inkscape:current-layer="layer1"
     showgrid="true"
     inkscape:grid-bbox="true"
     inkscape:document-units="px"
     inkscape:snap-page="true"
     inkscape:window-width="1255"
     inkscape:window-height="776"
     inkscape:window-x="25"
     inkscape:window-y="0"
     inkscape:window-maximized="1" />
  <metadata
     id="metadata3007">
    <rdf:RDF>
      <cc:Work
         rdf:about="">
        <dc:format>image/svg+xml</dc:format>
        <dc:type
           rdf:resource="http://purl.org/dc/dcmitype/StillImage" />
        <dc:title></dc:title>
      </cc:Work>
    </rdf:RDF>
  </metadata>
  <g
     id="layer1"
     inkscape:label="Layer 1"
     inkscape:groupmode="layer">
    <path
       style="opacity:1;fill:#000000;fill-opacity:1;stroke:none;stroke-opacity:1"
       d="m 22.105346,11.075357 c -2.261523,0.0091 -4.325885,0.109398 -5.911869,0.400419 -1.179114,0.225661 -4.311038,1.310256 -6.2108729,2.475956 -3.3704356,2.06803 -6.737996,2.897216 -7.9856573,3.762893 -2.73100775,1.894882 -1.70833967,4.890713 -1.70833967,4.890713 0.73007577,0.255923 -7.6366e-4,-5.59e-4 2.16820997,0.167862 0.9106217,-7.197143 8.1624429,-3.577666 6.7739077,-0.02098 0,0 12.0297612,-0.330478 15.7842192,-0.389928 0.01613,-5.349196 7.000453,-3.713342 6.740685,-0.77461 0.259768,1.192702 1.136269,-1.104828 -1.003671,-4.016434 -0.450433,-1.130141 0.13133,0.263517 0.33922,-1.495016 0,0 -0.970178,-1.906643 -2.400769,-3.322257 -1.488541,-1.223279 -2.434314,-1.311281 -4.096868,-1.678614 -0.162164,-0.01455 -0.171358,0.01748 -0.171358,0.01748 -0.787233,-0.01368 -1.562997,-0.0205 -2.316837,-0.01748 z m 2.341317,1.110333 c 1.56585,-0.05351 1.806443,0.333488 2.77321,0.809582 0.695013,1.055039 -1.203006,2.091273 -1.203006,2.091273 0,0 0.272054,0.373373 -3.402691,0.636475 0.121666,-0.622881 -0.250044,-3.324006 -0.250044,-3.324006 0.892269,-0.128758 1.560581,-0.195486 2.082531,-0.213324 z m -3.269801,0.02623 -0.531561,3.657979 c -1.483389,0.09561 -5.491187,0.317419 -9.165933,0.580521 0.121666,-0.62288 0.08568,-2.093022 0.08568,-2.093022 3.065492,-1.746017 6.272396,-2.013834 9.611814,-2.145478 z M 5.6986407,19.561101 a 2.601852,2.6298289 0 0 0 -0.5158241,0.07344 2.601852,2.6298289 0 0 0 -1.9496404,2.974295 2.601852,2.6298289 0 0 0 2.7767076,2.201432 2.601852,2.6298289 0 0 0 2.3937738,-2.621086 L 8.2707673,21.362114 A 2.601852,2.6298289 0 0 0 5.6986407,19.561101 Z m 22.6053383,0.05595 a 2.601852,2.6298289 0 0 0 -0.515824,0.07344 2.601852,2.6298289 0 0 0 -1.949641,2.974295 2.601852,2.6298289 0 0 0 2.776708,2.201432 2.601852,2.6298289 0 0 0 2.393773,-2.621086 l -0.13289,-0.827067 A 2.601852,2.6298289 0 0 0 28.303979,19.617055 Z M 5.812297,20.456362 a 1.8464756,1.8184987 0 0 1 1.8254928,1.244972 l 0.094422,0.571778 A 1.8464756,1.8184987 0 0 1 6.032615,24.086366 1.8464756,1.8184987 0 0 1 4.0619919,22.563373 1.8464756,1.8184987 0 0 1 5.4468486,20.50707 1.8464756,1.8184987 0 0 1 5.812297,20.456362 Z m 22.605338,0.05595 a 1.8464756,1.8184987 0 0 1 1.825492,1.244972 l 0.09442,0.571778 a 1.8464756,1.8184987 0 0 1 -1.699598,1.813253 1.8464756,1.8184987 0 0 1 -1.970622,-1.522992 1.8464756,1.8184987 0 0 1 1.384857,-2.056303 1.8464756,1.8184987 0 0 1 0.365448,-0.05071 z"
       id="rect4207"
       inkscape:connector-curvature="0" />
  </g>
</svg>
